<mxfile host="app.diagrams.net" agent="Mozilla/5.0 (Linux; Android 10; K) AppleWebKit/537.36 (KHTML, like Gecko) Chrome/138.0.0.0 Mobile Safari/537.36" version="28.0.7">
  <diagram name="Page-1" id="lUL8mkxF_m-0iR1F8BuU">
    <mxGraphModel dx="145" dy="514" grid="1" gridSize="10" guides="1" tooltips="1" connect="1" arrows="1" fold="1" page="1" pageScale="1" pageWidth="850" pageHeight="1100" math="0" shadow="0">
      <root>
        <mxCell id="0" />
        <mxCell id="1" parent="0" />
        <mxCell id="qarmb73A1b4Odx353nbt-1" value="" style="ellipse;whiteSpace=wrap;html=1;" vertex="1" parent="1">
          <mxGeometry x="220" y="80" width="100" height="50" as="geometry" />
        </mxCell>
        <mxCell id="qarmb73A1b4Odx353nbt-2" value="" style="endArrow=classic;html=1;rounded=0;fontSize=12;startSize=8;endSize=8;curved=1;exitX=0.5;exitY=1;exitDx=0;exitDy=0;" edge="1" parent="1" source="qarmb73A1b4Odx353nbt-1" target="qarmb73A1b4Odx353nbt-4">
          <mxGeometry width="50" height="50" relative="1" as="geometry">
            <mxPoint x="240" y="390" as="sourcePoint" />
            <mxPoint x="270" y="210" as="targetPoint" />
          </mxGeometry>
        </mxCell>
        <mxCell id="qarmb73A1b4Odx353nbt-4" value="" style="ellipse;whiteSpace=wrap;html=1;" vertex="1" parent="1">
          <mxGeometry x="220" y="190" width="100" height="50" as="geometry" />
        </mxCell>
        <mxCell id="qarmb73A1b4Odx353nbt-5" value="" style="endArrow=classic;html=1;rounded=0;fontSize=12;startSize=8;endSize=8;curved=1;exitX=0.5;exitY=1;exitDx=0;exitDy=0;" edge="1" parent="1" source="qarmb73A1b4Odx353nbt-4">
          <mxGeometry width="50" height="50" relative="1" as="geometry">
            <mxPoint x="270" y="250" as="sourcePoint" />
            <mxPoint x="270" y="310" as="targetPoint" />
          </mxGeometry>
        </mxCell>
        <mxCell id="qarmb73A1b4Odx353nbt-6" value="" style="ellipse;whiteSpace=wrap;html=1;" vertex="1" parent="1">
          <mxGeometry x="220" y="290" width="100" height="50" as="geometry" />
        </mxCell>
        <mxCell id="qarmb73A1b4Odx353nbt-7" value="" style="endArrow=classic;html=1;rounded=0;fontSize=12;startSize=8;endSize=8;curved=1;exitX=0.5;exitY=1;exitDx=0;exitDy=0;" edge="1" parent="1" source="qarmb73A1b4Odx353nbt-6" target="qarmb73A1b4Odx353nbt-8">
          <mxGeometry width="50" height="50" relative="1" as="geometry">
            <mxPoint x="240" y="360" as="sourcePoint" />
            <mxPoint x="270" y="420" as="targetPoint" />
          </mxGeometry>
        </mxCell>
        <mxCell id="qarmb73A1b4Odx353nbt-8" value="" style="ellipse;whiteSpace=wrap;html=1;" vertex="1" parent="1">
          <mxGeometry x="220" y="400" width="100" height="60" as="geometry" />
        </mxCell>
        <mxCell id="qarmb73A1b4Odx353nbt-10" value="" style="endArrow=classic;html=1;rounded=0;fontSize=12;startSize=8;endSize=8;curved=1;exitX=0.5;exitY=1;exitDx=0;exitDy=0;" edge="1" parent="1" source="qarmb73A1b4Odx353nbt-8" target="qarmb73A1b4Odx353nbt-11">
          <mxGeometry width="50" height="50" relative="1" as="geometry">
            <mxPoint x="240" y="360" as="sourcePoint" />
            <mxPoint x="270" y="540" as="targetPoint" />
            <Array as="points">
              <mxPoint x="270" y="510" />
            </Array>
          </mxGeometry>
        </mxCell>
        <mxCell id="qarmb73A1b4Odx353nbt-11" value="Release" style="ellipse;whiteSpace=wrap;html=1;" vertex="1" parent="1">
          <mxGeometry x="220" y="520" width="100" height="60" as="geometry" />
        </mxCell>
        <mxCell id="qarmb73A1b4Odx353nbt-13" value="Develop&amp;nbsp;" style="text;html=1;align=center;verticalAlign=middle;whiteSpace=wrap;rounded=0;rotation=0;" vertex="1" parent="1">
          <mxGeometry x="240" y="195" width="60" height="40" as="geometry" />
        </mxCell>
        <mxCell id="qarmb73A1b4Odx353nbt-14" value="Build" style="text;html=1;align=center;verticalAlign=middle;whiteSpace=wrap;rounded=0;" vertex="1" parent="1">
          <mxGeometry x="240" y="300" width="60" height="30" as="geometry" />
        </mxCell>
        <mxCell id="qarmb73A1b4Odx353nbt-15" value="Test" style="text;html=1;align=center;verticalAlign=middle;whiteSpace=wrap;rounded=0;" vertex="1" parent="1">
          <mxGeometry x="240" y="415" width="60" height="30" as="geometry" />
        </mxCell>
        <mxCell id="qarmb73A1b4Odx353nbt-17" value="Plan" style="text;html=1;align=center;verticalAlign=middle;whiteSpace=wrap;rounded=0;" vertex="1" parent="1">
          <mxGeometry x="240" y="90" width="60" height="30" as="geometry" />
        </mxCell>
        <mxCell id="qarmb73A1b4Odx353nbt-18" value="" style="endArrow=classic;html=1;rounded=0;fontSize=12;startSize=8;endSize=8;curved=1;exitX=0.5;exitY=1;exitDx=0;exitDy=0;" edge="1" parent="1" source="qarmb73A1b4Odx353nbt-11" target="qarmb73A1b4Odx353nbt-19">
          <mxGeometry width="50" height="50" relative="1" as="geometry">
            <mxPoint x="270" y="590" as="sourcePoint" />
            <mxPoint x="270" y="650" as="targetPoint" />
          </mxGeometry>
        </mxCell>
        <mxCell id="qarmb73A1b4Odx353nbt-19" value="Deploy" style="ellipse;whiteSpace=wrap;html=1;" vertex="1" parent="1">
          <mxGeometry x="215" y="620" width="110" height="60" as="geometry" />
        </mxCell>
        <mxCell id="qarmb73A1b4Odx353nbt-20" value="" style="endArrow=classic;html=1;rounded=0;fontSize=12;startSize=8;endSize=8;curved=1;exitX=0.5;exitY=1;exitDx=0;exitDy=0;" edge="1" parent="1" source="qarmb73A1b4Odx353nbt-19" target="qarmb73A1b4Odx353nbt-21">
          <mxGeometry width="50" height="50" relative="1" as="geometry">
            <mxPoint x="240" y="670" as="sourcePoint" />
            <mxPoint x="270" y="750" as="targetPoint" />
          </mxGeometry>
        </mxCell>
        <mxCell id="qarmb73A1b4Odx353nbt-21" value="Operate" style="ellipse;whiteSpace=wrap;html=1;" vertex="1" parent="1">
          <mxGeometry x="212.5" y="730" width="112.5" height="60" as="geometry" />
        </mxCell>
        <mxCell id="qarmb73A1b4Odx353nbt-23" value="" style="endArrow=classic;html=1;rounded=0;fontSize=12;startSize=8;endSize=8;curved=1;exitX=0.5;exitY=1;exitDx=0;exitDy=0;" edge="1" parent="1" source="qarmb73A1b4Odx353nbt-21" target="qarmb73A1b4Odx353nbt-24">
          <mxGeometry width="50" height="50" relative="1" as="geometry">
            <mxPoint x="240" y="670" as="sourcePoint" />
            <mxPoint x="269" y="870" as="targetPoint" />
          </mxGeometry>
        </mxCell>
        <mxCell id="qarmb73A1b4Odx353nbt-24" value="Monitor" style="ellipse;whiteSpace=wrap;html=1;" vertex="1" parent="1">
          <mxGeometry x="214.25" y="850" width="109" height="60" as="geometry" />
        </mxCell>
      </root>
    </mxGraphModel>
  </diagram>
</mxfile>
